<?xml version="1.0" encoding="utf-8"?>
<svg xmlns="http://www.w3.org/2000/svg" version="1.1" width="200" height="200">
<title>Exemple</title>
<line x1="100.0" y1="100.0" x2="124.62019" y2="104.3412" stroke="red" />
<line x1="124.62019" y1="104.3412" x2="145.099" y2="90.00179" stroke="red" />
<line x1="145.099" y1="90.00179" x2="149.4402" y2="65.3816" stroke="red" />
<line x1="149.4402" y1="65.3816" x2="135.10078" y2="44.9028" stroke="red" />
<line x1="135.10078" y1="44.9028" x2="110.48059" y2="40.561592" stroke="red" />
<line x1="110.48059" y1="40.561592" x2="90.001785" y2="54.901" stroke="red" />
<line x1="90.001785" y1="54.901" x2="85.66058" y2="79.521194" stroke="red" />
<line x1="85.66058" y1="79.521194" x2="99.99999" y2="100.0" stroke="red" />
<line x1="99.99999" y1="100.0" x2="123.49231" y2="108.55051" stroke="red" />
<line x1="123.49231" y1="108.55051" x2="146.15001" y2="97.98505" stroke="red" />
<line x1="146.15001" y1="97.98505" x2="154.70052" y2="74.49273" stroke="red" />
<line x1="154.70052" y1="74.49273" x2="144.13507" y2="51.83503" stroke="red" />
<line x1="144.13507" y1="51.83503" x2="120.64275" y2="43.284527" stroke="red" />
<line x1="120.64275" y1="43.284527" x2="97.985054" y2="53.84997" stroke="red" />
<line x1="97.985054" y1="53.84997" x2="89.43455" y2="77.342285" stroke="red" />
<line x1="89.43455" y1="77.342285" x2="100.00001" y2="99.99998" stroke="red" />
<line x1="100.00001" y1="99.99998" x2="121.650635" y2="112.499985" stroke="red" />
<line x1="121.650635" y1="112.499985" x2="145.79878" y2="106.02951" stroke="red" />
<line x1="145.79878" y1="106.02951" x2="158.29878" y2="84.378876" stroke="red" />
<line x1="158.29878" y1="84.378876" x2="151.82832" y2="60.23073" stroke="red" />
<line x1="151.82832" y1="60.23073" x2="130.17769" y2="47.730724" stroke="red" />
<line x1="130.17769" y1="47.730724" x2="106.02954" y2="54.201202" stroke="red" />
<line x1="106.02954" y1="54.201202" x2="93.52955" y2="75.851845" stroke="red" />
<line x1="93.52955" y1="75.851845" x2="100.000046" y2="99.999985" stroke="red" />
<line x1="100.000046" y1="99.999985" x2="119.15116" y2="116.06967" stroke="red" />
<line x1="119.15116" y1="116.06967" x2="144.05603" y2="113.89076" stroke="red" />
<line x1="144.05603" y1="113.89076" x2="160.12573" y2="94.73967" stroke="red" />
<line x1="160.12573" y1="94.73967" x2="157.94685" y2="69.8348" stroke="red" />
<line x1="157.94685" y1="69.8348" x2="138.79575" y2="53.765102" stroke="red" />
<line x1="138.79575" y1="53.765102" x2="113.89088" y2="55.943993" stroke="red" />
<line x1="113.89088" y1="55.943993" x2="97.82119" y2="75.09511" stroke="red" />
<line x1="97.82119" y1="75.09511" x2="100.0001" y2="99.99998" stroke="red" />
<line x1="100.0001" y1="99.99998" x2="116.069786" y2="119.15109" stroke="red" />
<line x1="116.069786" y1="119.15109" x2="140.97466" y2="121.32998" stroke="red" />
<line x1="140.97466" y1="121.32998" x2="160.12576" y2="105.26028" stroke="red" />
<line x1="160.12576" y1="105.26028" x2="162.30469" y2="80.35541" stroke="red" />
<line x1="162.30469" y1="80.35541" x2="146.23502" y2="61.204285" stroke="red" />
<line x1="146.23502" y1="61.204285" x2="121.33015" y2="59.025383" stroke="red" />
<line x1="121.33015" y1="59.025383" x2="102.17903" y2="75.09507" stroke="red" />
<line x1="102.17903" y1="75.09507" x2="100.000145" y2="99.99994" stroke="red" />
<line x1="100.000145" y1="99.99994" x2="112.50014" y2="121.65057" stroke="red" />
<line x1="112.50014" y1="121.65057" x2="136.64828" y2="128.12105" stroke="red" />
<line x1="136.64828" y1="128.12105" x2="158.29892" y2="115.62104" stroke="red" />
<line x1="158.29892" y1="115.62104" x2="164.76942" y2="91.4729" stroke="red" />
<line x1="164.76942" y1="91.4729" x2="152.26941" y2="69.82228" stroke="red" />
<line x1="152.26941" y1="69.82228" x2="128.12128" y2="63.351788" stroke="red" />
<line x1="128.12128" y1="63.351788" x2="106.47066" y2="75.85182" stroke="red" />
<line x1="106.47066" y1="75.85182" x2="100.00018" y2="99.99997" stroke="red" />
<line x1="100.00018" y1="99.99997" x2="108.55072" y2="123.49228" stroke="red" />
<line x1="108.55072" y1="123.49228" x2="131.2084" y2="134.05774" stroke="red" />
<line x1="131.2084" y1="134.05774" x2="154.70074" y2="125.50728" stroke="red" />
<line x1="154.70074" y1="125.50728" x2="165.26619" y2="102.84958" stroke="red" />
<line x1="165.26619" y1="102.84958" x2="156.71571" y2="79.357254" stroke="red" />
<line x1="156.71571" y1="79.357254" x2="134.05801" y2="68.79182" stroke="red" />
<line x1="134.05801" y1="68.79182" x2="110.56569" y2="77.34231" stroke="red" />
<line x1="110.56569" y1="77.34231" x2="100.00018" y2="99.99998" stroke="red" />
<line x1="100.00018" y1="99.99998" x2="104.34137" y2="124.62018" stroke="red" />
<line x1="104.34137" y1="124.62018" x2="124.82019" y2="138.95956" stroke="red" />
<line x1="124.82019" y1="138.95956" x2="149.44038" y2="134.61836" stroke="red" />
<line x1="149.44038" y1="134.61836" x2="163.77983" y2="114.13959" stroke="red" />
<line x1="163.77983" y1="114.13959" x2="159.43861" y2="89.519394" stroke="red" />
<line x1="159.43861" y1="89.519394" x2="138.95984" y2="75.17996" stroke="red" />
<line x1="138.95984" y1="75.17996" x2="114.339645" y2="79.521194" stroke="red" />
<line x1="114.339645" y1="79.521194" x2="100.00022" y2="99.999985" stroke="red" />
<line x1="100.00022" y1="99.999985" x2="100.00024" y2="124.999985" stroke="red" />
<line x1="100.00024" y1="124.999985" x2="117.67789" y2="142.67767" stroke="red" />
<line x1="117.67789" y1="142.67767" x2="142.67789" y2="142.67764" stroke="red" />
<line x1="142.67789" y1="142.67764" x2="160.35556" y2="124.99998" stroke="red" />
<line x1="160.35556" y1="124.99998" x2="160.3556" y2="99.99998" stroke="red" />
<line x1="160.3556" y1="99.99998" x2="142.67793" y2="82.32231" stroke="red" />
<line x1="142.67793" y1="82.32231" x2="117.67793" y2="82.32228" stroke="red" />
<line x1="117.67793" y1="82.32228" x2="100.00028" y2="99.99997" stroke="red" />
<line x1="100.00028" y1="99.99997" x2="95.65904" y2="124.620155" stroke="red" />
<line x1="95.65904" y1="124.620155" x2="109.998474" y2="145.09894" stroke="red" />
<line x1="109.998474" y1="145.09894" x2="134.61867" y2="149.44016" stroke="red" />
<line x1="134.61867" y1="149.44016" x2="155.09744" y2="135.10071" stroke="red" />
<line x1="155.09744" y1="135.10071" x2="159.43864" y2="110.480515" stroke="red" />
<line x1="159.43864" y1="110.480515" x2="145.09927" y2="90.00169" stroke="red" />
<line x1="145.09927" y1="90.00169" x2="120.47908" y2="85.6605" stroke="red" />
<line x1="120.47908" y1="85.6605" x2="100.00026" y2="99.999886" stroke="red" />
<line x1="100.00026" y1="99.999886" x2="91.44976" y2="123.4922" stroke="red" />
<line x1="91.44976" y1="123.4922" x2="102.01518" y2="146.14992" stroke="red" />
<line x1="102.01518" y1="146.14992" x2="125.50751" y2="154.7004" stroke="red" />
<line x1="125.50751" y1="154.7004" x2="148.1652" y2="144.13495" stroke="red" />
<line x1="148.1652" y1="144.13495" x2="156.71576" y2="120.642654" stroke="red" />
<line x1="156.71576" y1="120.642654" x2="146.1503" y2="97.984955" stroke="red" />
<line x1="146.1503" y1="97.984955" x2="122.65797" y2="89.4345" stroke="red" />
<line x1="122.65797" y1="89.4345" x2="100.00024" y2="99.999886" stroke="red" />
<line x1="100.00024" y1="99.999886" x2="87.500275" y2="121.65054" stroke="red" />
<line x1="87.500275" y1="121.65054" x2="93.970665" y2="145.7987" stroke="red" />
<line x1="93.970665" y1="145.7987" x2="115.621284" y2="158.29874" stroke="red" />
<line x1="115.621284" y1="158.29874" x2="139.76942" y2="151.82823" stroke="red" />
<line x1="139.76942" y1="151.82823" x2="152.26936" y2="130.17755" stroke="red" />
<line x1="152.26936" y1="130.17755" x2="145.79893" y2="106.02939" stroke="red" />
<line x1="145.79893" y1="106.02939" x2="124.1483" y2="93.52939" stroke="red" />
<line x1="124.1483" y1="93.52939" x2="100.00017" y2="99.999916" stroke="red" />
<line x1="100.00017" y1="99.999916" x2="83.93047" y2="119.151024" stroke="red" />
<line x1="83.93047" y1="119.151024" x2="86.10941" y2="144.0559" stroke="red" />
<line x1="86.10941" y1="144.0559" x2="105.26047" y2="160.12564" stroke="red" />
<line x1="105.26047" y1="160.12564" x2="130.16534" y2="157.94678" stroke="red" />
<line x1="130.16534" y1="157.94678" x2="146.23502" y2="138.79565" stroke="red" />
<line x1="146.23502" y1="138.79565" x2="144.05605" y2="113.89079" stroke="red" />
<line x1="144.05605" y1="113.89079" x2="124.90497" y2="97.82106" stroke="red" />
<line x1="124.90497" y1="97.82106" x2="100.0001" y2="99.999954" stroke="red" />
<line x1="100.0001" y1="99.999954" x2="80.848946" y2="116.069595" stroke="red" />
<line x1="80.848946" y1="116.069595" x2="78.670044" y2="140.97446" stroke="red" />
<line x1="78.670044" y1="140.97446" x2="94.73978" y2="160.12553" stroke="red" />
<line x1="94.73978" y1="160.12553" x2="119.64464" y2="162.30452" stroke="red" />
<line x1="119.64464" y1="162.30452" x2="138.79578" y2="146.23485" stroke="red" />
<line x1="138.79578" y1="146.23485" x2="140.97464" y2="121.32998" stroke="red" />
<line x1="140.97464" y1="121.32998" x2="124.90503" y2="102.1788" stroke="red" />
<line x1="124.90503" y1="102.1788" x2="100.00017" y2="99.999855" stroke="red" />
<line x1="100.00017" y1="99.999855" x2="78.34957" y2="112.499916" stroke="red" />
<line x1="78.34957" y1="112.499916" x2="71.879036" y2="136.64804" stroke="red" />
<line x1="71.879036" y1="136.64804" x2="84.37903" y2="158.29868" stroke="red" />
<line x1="84.37903" y1="158.29868" x2="108.52719" y2="164.7691" stroke="red" />
<line x1="108.52719" y1="164.7691" x2="130.17787" y2="152.26918" stroke="red" />
<line x1="130.17787" y1="152.26918" x2="136.64838" y2="128.12105" stroke="red" />
<line x1="136.64838" y1="128.12105" x2="124.14835" y2="106.47043" stroke="red" />
<line x1="124.14835" y1="106.47043" x2="100.00024" y2="99.99985" stroke="red" />
<line x1="100.00024" y1="99.99985" x2="76.50793" y2="108.55037" stroke="red" />
<line x1="76.50793" y1="108.55037" x2="65.942535" y2="131.2081" stroke="red" />
<line x1="65.942535" y1="131.2081" x2="74.49298" y2="154.70044" stroke="red" />
<line x1="74.49298" y1="154.70044" x2="97.15067" y2="165.2659" stroke="red" />
<line x1="97.15067" y1="165.2659" x2="120.642975" y2="156.71535" stroke="red" />
<line x1="120.642975" y1="156.71535" x2="131.20851" y2="134.0577" stroke="red" />
<line x1="131.20851" y1="134.0577" x2="122.658035" y2="110.56537" stroke="red" />
<line x1="122.658035" y1="110.56537" x2="100.00033" y2="99.99994" stroke="red" />
<line x1="100.00033" y1="99.99994" x2="75.38013" y2="104.34111" stroke="red" />
<line x1="75.38013" y1="104.34111" x2="61.040733" y2="124.81992" stroke="red" />
<line x1="61.040733" y1="124.81992" x2="65.38183" y2="149.44014" stroke="red" />
<line x1="65.38183" y1="149.44014" x2="85.860596" y2="163.7796" stroke="red" />
<line x1="85.860596" y1="163.7796" x2="110.48079" y2="159.4384" stroke="red" />
<line x1="110.48079" y1="159.4384" x2="124.82016" y2="138.95956" stroke="red" />
<line x1="124.82016" y1="138.95956" x2="120.479034" y2="114.339355" stroke="red" />
<line x1="120.479034" y1="114.339355" x2="100.000244" y2="99.99992" stroke="red" />
<line x1="100.000244" y1="99.99992" x2="75.000244" y2="99.99983" stroke="red" />
<line x1="75.000244" y1="99.99983" x2="57.32255" y2="117.677475" stroke="red" />
<line x1="57.32255" y1="117.677475" x2="57.322575" y2="142.67747" stroke="red" />
<line x1="57.322575" y1="142.67747" x2="75.00017" y2="160.35522" stroke="red" />
<line x1="75.00017" y1="160.35522" x2="100.00017" y2="160.35529" stroke="red" />
<line x1="100.00017" y1="160.35529" x2="117.67784" y2="142.67761" stroke="red" />
<line x1="117.67784" y1="142.67761" x2="117.67779" y2="117.67761" stroke="red" />
<line x1="117.67779" y1="117.67761" x2="100.000175" y2="99.999886" stroke="red" />
<line x1="100.000175" y1="99.999886" x2="75.379974" y2="95.65873" stroke="red" />
<line x1="75.379974" y1="95.65873" x2="54.901123" y2="109.99807" stroke="red" />
<line x1="54.901123" y1="109.99807" x2="50.559887" y2="134.61826" stroke="red" />
<line x1="50.559887" y1="134.61826" x2="64.899315" y2="155.09705" stroke="red" />
<line x1="64.899315" y1="155.09705" x2="89.519485" y2="159.43835" stroke="red" />
<line x1="89.519485" y1="159.43835" x2="109.99832" y2="145.09898" stroke="red" />
<line x1="109.99832" y1="145.09898" x2="114.33952" y2="120.47879" stroke="red" />
<line x1="114.33952" y1="120.47879" x2="100.00007" y2="100.00002" stroke="red" />
<line x1="100.00007" y1="100.00002" x2="76.50775" y2="91.44952" stroke="red" />
<line x1="76.50775" y1="91.44952" x2="53.850075" y2="102.015015" stroke="red" />
<line x1="53.850075" y1="102.015015" x2="45.29949" y2="125.5073" stroke="red" />
<line x1="45.29949" y1="125.5073" x2="55.86492" y2="148.16501" stroke="red" />
<line x1="55.86492" y1="148.16501" x2="79.35725" y2="156.71548" stroke="red" />
<line x1="79.35725" y1="156.71548" x2="102.014984" y2="146.15013" stroke="red" />
<line x1="102.014984" y1="146.15013" x2="110.56554" y2="122.65784" stroke="red" />
<line x1="110.56554" y1="122.65784" x2="100.00008" y2="100.000145" stroke="red" />
<line x1="100.00008" y1="100.000145" x2="78.34947" y2="87.50009" stroke="red" />
<line x1="78.34947" y1="87.50009" x2="54.201324" y2="93.970566" stroke="red" />
<line x1="54.201324" y1="93.970566" x2="41.701366" y2="115.62122" stroke="red" />
<line x1="41.701366" y1="115.62122" x2="48.17176" y2="139.7694" stroke="red" />
<line x1="48.17176" y1="139.7694" x2="69.82238" y2="152.26942" stroke="red" />
<line x1="69.82238" y1="152.26942" x2="93.97052" y2="145.79892" stroke="red" />
<line x1="93.97052" y1="145.79892" x2="106.47061" y2="124.14834" stroke="red" />
<line x1="106.47061" y1="124.14834" x2="100.00018" y2="100.00018" stroke="red" />
<line x1="100.00018" y1="100.00018" x2="80.849144" y2="83.930405" stroke="red" />
<line x1="80.849144" y1="83.930405" x2="55.94427" y2="86.10924" stroke="red" />
<line x1="55.94427" y1="86.10924" x2="39.874577" y2="105.260345" stroke="red" />
<line x1="39.874577" y1="105.260345" x2="42.05352" y2="130.1652" stroke="red" />
<line x1="42.05352" y1="130.1652" x2="61.2047" y2="146.23482" stroke="red" />
<line x1="61.2047" y1="146.23482" x2="86.10956" y2="144.05576" stroke="red" />
<line x1="86.10956" y1="144.05576" x2="102.179375" y2="124.90475" stroke="red" />
<line x1="102.179375" y1="124.90475" x2="100.00059" y2="99.99987" stroke="red" />
<line x1="100.00059" y1="99.99987" x2="83.93088" y2="80.84877" stroke="red" />
<line x1="83.93088" y1="80.84877" x2="59.026" y2="78.66995" stroke="red" />
<line x1="59.026" y1="78.66995" x2="39.874977" y2="94.739746" stroke="red" />
<line x1="39.874977" y1="94.739746" x2="37.695892" y2="119.64459" stroke="red" />
<line x1="37.695892" y1="119.64459" x2="53.76548" y2="138.79579" stroke="red" />
<line x1="53.76548" y1="138.79579" x2="78.67034" y2="140.97476" stroke="red" />
<line x1="78.67034" y1="140.97476" x2="97.82147" y2="124.90509" stroke="red" />
<line x1="97.82147" y1="124.90509" x2="100.000336" y2="100.00022" stroke="red" />
<line x1="100.000336" y1="100.00022" x2="87.5002" y2="78.34966" stroke="red" />
<line x1="87.5002" y1="78.34966" x2="63.352097" y2="71.87902" stroke="red" />
<line x1="63.352097" y1="71.87902" x2="41.701405" y2="84.37892" stroke="red" />
<line x1="41.701405" y1="84.37892" x2="35.230873" y2="108.527054" stroke="red" />
<line x1="35.230873" y1="108.527054" x2="47.730873" y2="130.17769" stroke="red" />
<line x1="47.730873" y1="130.17769" x2="71.879036" y2="136.64812" stroke="red" />
<line x1="71.879036" y1="136.64812" x2="93.52962" y2="124.148026" stroke="red" />
<line x1="93.52962" y1="124.148026" x2="100.000305" y2="99.99994" stroke="red" />
<line x1="100.000305" y1="99.99994" x2="91.44988" y2="76.50759" stroke="red" />
<line x1="91.44988" y1="76.50759" x2="68.792206" y2="65.94211" stroke="red" />
<line x1="68.792206" y1="65.94211" x2="45.299896" y2="74.49263" stroke="red" />
<line x1="45.299896" y1="74.49263" x2="34.734512" y2="97.15036" stroke="red" />
<line x1="34.734512" y1="97.15036" x2="43.28514" y2="120.64263" stroke="red" />
<line x1="43.28514" y1="120.64263" x2="65.94276" y2="131.20827" stroke="red" />
<line x1="65.94276" y1="131.20827" x2="89.43512" y2="122.65789" stroke="red" />
<line x1="89.43512" y1="122.65789" x2="100.00065" y2="100.00023" stroke="red" />
<line x1="100.00065" y1="100.00023" x2="95.65939" y2="75.38004" stroke="red" />
<line x1="95.65939" y1="75.38004" x2="75.180534" y2="61.040718" stroke="red" />
<line x1="75.180534" y1="61.040718" x2="50.560368" y2="65.38208" stroke="red" />
<line x1="50.560368" y1="65.38208" x2="36.22082" y2="85.86079" stroke="red" />
<line x1="36.22082" y1="85.86079" x2="40.561916" y2="110.481" stroke="red" />
<line x1="40.561916" y1="110.481" x2="61.040688" y2="124.82046" stroke="red" />
<line x1="61.040688" y1="124.82046" x2="85.66088" y2="120.47925" stroke="red" />
<line x1="85.66088" y1="120.47925" x2="100.000244" y2="100.00041" stroke="red" />
<line x1="100.000244" y1="100.00041" x2="100.00044" y2="75.00041" stroke="red" />
<line x1="100.00044" y1="75.00041" x2="82.322876" y2="57.322643" stroke="red" />
<line x1="82.322876" y1="57.322643" x2="57.322876" y2="57.32256" stroke="red" />
<line x1="57.322876" y1="57.32256" x2="39.645187" y2="75.000206" stroke="red" />
<line x1="39.645187" y1="75.000206" x2="39.645214" y2="100.000206" stroke="red" />
<line x1="39.645214" y1="100.000206" x2="57.32294" y2="117.67782" stroke="red" />
<line x1="57.32294" y1="117.67782" x2="82.32294" y2="117.67768" stroke="red" />
<line x1="82.32294" y1="117.67768" x2="100.00074" y2="100.000145" stroke="red" />
<line x1="100.00074" y1="100.000145" x2="104.342" y2="75.37996" stroke="red" />
<line x1="104.342" y1="75.37996" x2="90.002594" y2="54.901154" stroke="red" />
<line x1="90.002594" y1="54.901154" x2="65.38239" y2="50.559998" stroke="red" />
<line x1="65.38239" y1="50.559998" x2="44.903652" y2="64.8995" stroke="red" />
<line x1="44.903652" y1="64.8995" x2="40.562233" y2="89.51965" stroke="red" />
<line x1="40.562233" y1="89.51965" x2="54.901512" y2="109.99855" stroke="red" />
<line x1="54.901512" y1="109.99855" x2="79.52168" y2="114.33986" stroke="red" />
<line x1="79.52168" y1="114.33986" x2="100.00051" y2="100.00049" stroke="red" />
<line x1="100.00051" y1="100.00049" x2="108.55094" y2="76.50815" stroke="red" />
<line x1="108.55094" y1="76.50815" x2="97.98537" y2="53.85051" stroke="red" />
<line x1="97.98537" y1="53.85051" x2="74.49312" y2="45.299824" stroke="red" />
<line x1="74.49312" y1="45.299824" x2="51.835365" y2="55.865154" stroke="red" />
<line x1="51.835365" y1="55.865154" x2="43.284782" y2="79.35744" stroke="red" />
<line x1="43.284782" y1="79.35744" x2="53.850216" y2="102.015144" stroke="red" />
<line x1="53.850216" y1="102.015144" x2="77.342545" y2="110.56562" stroke="red" />
<line x1="77.342545" y1="110.56562" x2="100.000206" y2="100.00009" stroke="red" />
<line x1="100.000206" y1="100.00009" x2="112.50035" y2="78.34954" stroke="red" />
<line x1="112.50035" y1="78.34954" x2="106.02998" y2="54.201366" stroke="red" />
<line x1="106.02998" y1="54.201366" x2="84.37938" y2="41.701317" stroke="red" />
<line x1="84.37938" y1="41.701317" x2="60.23123" y2="48.17179" stroke="red" />
<line x1="60.23123" y1="48.17179" x2="47.731277" y2="69.82245" stroke="red" />
<line x1="47.731277" y1="69.82245" x2="54.20186" y2="93.970566" stroke="red" />
<line x1="54.20186" y1="93.970566" x2="75.85239" y2="106.47076" stroke="red" />
<line x1="75.85239" y1="106.47076" x2="100.00057" y2="100.000435" stroke="red" />
<line x1="100.00057" y1="100.000435" x2="116.07029" y2="80.84934" stroke="red" />
<line x1="116.07029" y1="80.84934" x2="113.89137" y2="55.944477" stroke="red" />
<line x1="113.89137" y1="55.944477" x2="94.74021" y2="39.874847" stroke="red" />
<line x1="94.74021" y1="39.874847" x2="69.83536" y2="42.053875" stroke="red" />
<line x1="69.83536" y1="42.053875" x2="53.76552" y2="61.204865" stroke="red" />
<line x1="53.76552" y1="61.204865" x2="55.944275" y2="86.10974" stroke="red" />
<line x1="55.944275" y1="86.10974" x2="75.09534" y2="102.17949" stroke="red" />
<line x1="75.09534" y1="102.17949" x2="100.000206" y2="100.00062" stroke="red" />
<line x1="100.000206" y1="100.00062" x2="119.151245" y2="83.93085" stroke="red" />
<line x1="119.151245" y1="83.93085" x2="121.33036" y2="59.026" stroke="red" />
<line x1="121.33036" y1="59.026" x2="105.260796" y2="39.874783" stroke="red" />
<line x1="105.260796" y1="39.874783" x2="80.35594" y2="37.695778" stroke="red" />
<line x1="80.35594" y1="37.695778" x2="61.204796" y2="53.765427" stroke="red" />
<line x1="61.204796" y1="53.765427" x2="59.0259" y2="78.670296" stroke="red" />
<line x1="59.0259" y1="78.670296" x2="75.095634" y2="97.82137" stroke="red" />
<line x1="75.095634" y1="97.82137" x2="100.00051" y2="100.00015" stroke="red" />
<line x1="100.00051" y1="100.00015" x2="121.651215" y2="87.500275" stroke="red" />
<line x1="121.651215" y1="87.500275" x2="128.12178" y2="63.35215" stroke="red" />
<line x1="128.12178" y1="63.35215" x2="115.6218" y2="41.7015" stroke="red" />
<line x1="115.6218" y1="41.7015" x2="91.47365" y2="35.23105" stroke="red" />
<line x1="91.47365" y1="35.23105" x2="69.82305" y2="47.731117" stroke="red" />
<line x1="69.82305" y1="47.731117" x2="63.352707" y2="71.8793" stroke="red" />
<line x1="63.352707" y1="71.8793" x2="75.85255" y2="93.53003" stroke="red" />
<line x1="75.85255" y1="93.53003" x2="100.000656" y2="100.00063" stroke="red" />
<line x1="100.000656" y1="100.00063" x2="123.49297" y2="91.450134" stroke="red" />
<line x1="123.49297" y1="91.450134" x2="134.05838" y2="68.79242" stroke="red" />
<line x1="134.05838" y1="68.79242" x2="125.507774" y2="45.30014" stroke="red" />
<line x1="125.507774" y1="45.30014" x2="102.850174" y2="34.734486" stroke="red" />
<line x1="102.850174" y1="34.734486" x2="79.3578" y2="43.284836" stroke="red" />
<line x1="79.3578" y1="43.284836" x2="68.79225" y2="65.94249" stroke="red" />
<line x1="68.79225" y1="65.94249" x2="77.342705" y2="89.43482" stroke="red" />
<line x1="77.342705" y1="89.43482" x2="100.0004" y2="100.000275" stroke="red" />
<line x1="100.0004" y1="100.000275" x2="124.62057" y2="95.65894" stroke="red" />
<line x1="124.62057" y1="95.65894" x2="138.96014" y2="75.18025" stroke="red" />
<line x1="138.96014" y1="75.18025" x2="134.61908" y2="50.560036" stroke="red" />
<line x1="134.61908" y1="50.560036" x2="114.14033" y2="36.22056" stroke="red" />
<line x1="114.14033" y1="36.22056" x2="89.52013" y2="40.561737" stroke="red" />
<line x1="89.52013" y1="40.561737" x2="75.18074" y2="61.040554" stroke="red" />
<line x1="75.18074" y1="61.040554" x2="79.522026" y2="85.660736" stroke="red" />
<line x1="79.522026" y1="85.660736" x2="100.00091" y2="100.00003" stroke="red" />
<line x1="100.00091" y1="100.00003" x2="125.00091" y2="100.000145" stroke="red" />
<line x1="125.00091" y1="100.000145" x2="142.67862" y2="82.32252" stroke="red" />
<line x1="142.67862" y1="82.32252" x2="142.67862" y2="57.322517" stroke="red" />
<line x1="142.67862" y1="57.322517" x2="125.000916" y2="39.644886" stroke="red" />
<line x1="125.000916" y1="39.644886" x2="100.000916" y2="39.644997" stroke="red" />
<line x1="100.000916" y1="39.644997" x2="82.32309" y2="57.32251" stroke="red" />
<line x1="82.32309" y1="57.32251" x2="82.32293" y2="82.32251" stroke="red" />
<line x1="82.32293" y1="82.32251" x2="100.00053" y2="100.00025" stroke="red" />
</svg>